<svg width="116" height="51" viewBox="0 0 116 51" fill="none" xmlns="http://www.w3.org/2000/svg">
<path d="M37.8993 3.45654C37.6119 3.38539 37.5498 3.24231 37.5546 2.98587C37.5691 2.15242 37.5441 1.31741 37.5764 0.484744C37.5909 0.0977307 37.4513 0.0117277 37.0727 0.0117277C26.8644 0.0172006 16.6552 0.0132914 6.44609 0C6.09255 0 6.01587 0.124313 6.02071 0.431579C6.03524 1.29083 6.01749 2.15086 6.02879 3.0101C6.03201 3.26264 5.93919 3.38148 5.68493 3.44403C5.03031 3.60352 4.39668 3.83026 3.83246 4.1946C1.44565 5.73874 0.138026 7.88725 0.00807061 10.6784C-0.171929 14.5368 2.6782 17.7362 6.63336 18.1247C7.66896 18.2264 8.6747 18.0919 9.63928 17.7158C9.92986 17.6025 10.0356 17.6642 10.0267 17.9605C10.0203 18.1685 10.0356 18.3773 10.0356 18.586C10.0275 29.2027 10.0186 39.8186 10.0106 50.4353C10.0106 50.54 10.0146 50.644 10.0114 50.748C10.0065 50.9044 10.0945 50.9435 10.239 50.9474C10.574 50.9568 10.4626 50.7144 10.4626 50.5611C10.4674 45.0898 10.4666 39.6184 10.4666 34.1479H10.4537C10.4537 32.2324 10.4545 30.3176 10.4537 28.4029C10.4505 24.9119 10.4537 21.421 10.4327 17.9301C10.4303 17.5657 10.5086 17.3531 10.8452 17.1513C11.6911 16.6447 12.399 15.9739 12.8696 15.1217C13.0964 14.7089 13.3708 14.6017 13.8212 14.6025C19.0937 14.6103 24.367 14.601 29.6395 14.597C29.8001 14.597 29.9615 14.6135 30.1229 14.6111C30.3215 14.608 30.4377 14.6924 30.5298 14.8652C31.0399 15.8285 31.7978 16.5728 32.7374 17.1466C32.9432 17.2717 33.0368 17.4234 33.0352 17.6556C33.0328 18.0989 33.0514 18.5415 33.0514 18.984C33.0522 26.5788 33.0506 34.1729 33.0562 41.7677C33.0562 41.9186 32.9295 42.1766 33.2483 42.186C33.5785 42.1962 33.4509 41.9335 33.4509 41.7834C33.4566 33.8633 33.4558 25.9432 33.4566 18.0231C33.4566 17.5665 33.4759 17.5493 33.9417 17.7182C35.8361 18.407 37.7064 18.3093 39.4934 17.432C41.7212 16.3374 42.9715 14.5368 43.4018 12.1514C44.0822 8.37669 41.5017 4.34784 37.8993 3.45654ZM6.48565 0.929614C6.46385 0.569965 6.59461 0.462071 6.96592 0.462852C10.2059 0.472235 13.4467 0.462071 16.6875 0.461289C23.2894 0.459725 29.8921 0.459725 36.494 0.458943C37.1357 0.458943 37.1333 0.458943 37.126 1.06722C37.1187 1.69191 37.1107 2.31739 37.1131 2.94208C37.1139 3.17116 37.0372 3.25326 36.7821 3.25326C31.7672 3.24544 26.7514 3.247 21.7364 3.247V3.21886C16.9894 3.21886 12.2432 3.2212 7.49623 3.21573C7.1669 3.21495 6.72941 3.39008 6.5373 3.16569C6.37748 2.97961 6.49533 2.56914 6.49372 2.25719C6.4913 1.81466 6.51309 1.37057 6.48565 0.929614ZM29.9962 14.1577C29.9155 14.1616 29.8348 14.1608 29.7541 14.1608H21.7687V14.1553C19.0937 14.1553 16.4179 14.1491 13.743 14.1623C13.3644 14.1647 13.3612 14.0771 13.4306 13.7433C13.5299 13.264 13.7785 13.185 14.2297 13.1858C19.2447 13.196 24.2588 13.1858 29.273 13.1827C29.8614 13.1819 30.1003 13.4094 30.1391 13.9786C30.1472 14.0943 30.1157 14.153 29.9962 14.1577ZM14.5106 10.4845C14.7067 11.5049 15.4348 12.0928 16.4421 12.0357C17.3825 11.9833 18.029 11.3008 18.0791 10.2813C18.1073 9.70974 18.1146 9.13586 18.1073 8.56355C18.1041 8.28912 18.2099 8.20703 18.4851 8.20234C18.7773 8.19687 18.854 8.30554 18.8483 8.56902C18.8282 9.45485 18.8249 10.3399 18.8169 11.2257C18.816 11.3555 18.816 11.4861 18.8273 11.6159C18.8386 11.7558 18.8911 11.8754 19.0671 11.8723C19.2592 11.8684 19.2648 11.7292 19.2656 11.5948C19.2664 11.282 19.2632 10.9701 19.2624 10.6573C19.2624 9.95367 19.2705 9.25079 19.26 8.54791C19.256 8.2946 19.3472 8.20312 19.6119 8.20859C19.8629 8.21328 19.9824 8.27818 19.9687 8.544C19.9477 8.93414 19.9477 9.32507 19.9542 9.71599C19.9598 10.0014 19.9663 10.2906 20.0147 10.5721C20.1656 11.4548 20.8348 12.0193 21.7283 12.0428C22.6429 12.0662 23.3588 11.5322 23.5574 10.6566C23.7124 9.97478 23.6349 9.27972 23.6284 8.5917C23.6252 8.26254 23.7568 8.19374 24.0562 8.20781C24.3194 8.21954 24.3621 8.35636 24.3605 8.56511C24.3549 9.24219 24.3549 9.91927 24.3533 10.5963C24.3533 10.8958 24.3533 11.1952 24.3573 11.4947C24.3597 11.6628 24.3379 11.8676 24.5962 11.8629C24.8489 11.8575 24.7827 11.6479 24.7843 11.5064C24.7932 10.6996 24.7932 9.89191 24.7956 9.08426C24.7964 8.91538 24.798 8.74572 24.7908 8.57684C24.7827 8.36262 24.7916 8.19374 25.1007 8.2039C25.3727 8.21328 25.5269 8.26332 25.5188 8.57372C25.5051 9.17183 25.4922 9.77307 25.535 10.3696C25.5866 11.0819 25.9321 11.6557 26.6392 11.9231C27.2777 12.1639 27.9153 12.0983 28.465 11.6636C28.9243 11.3016 29.0881 10.7871 29.1245 10.2437C29.1616 9.6855 29.1568 9.12413 29.143 8.56511C29.1374 8.30632 29.2262 8.22267 29.4885 8.22736C30.2125 8.23987 30.9374 8.23127 31.6969 8.23127C30.8768 8.87863 30.2908 9.66908 30.0188 10.662C29.855 11.2609 29.8356 11.87 29.8558 12.4837C29.8606 12.6346 29.909 12.7824 29.6314 12.7808C25.9337 12.7636 22.236 12.7589 18.5384 12.7519C17.0322 12.7488 15.526 12.7378 14.0206 12.7566C13.6881 12.7605 13.6154 12.6706 13.6275 12.3649C13.6816 10.9701 13.3103 9.71052 12.2908 8.67692C12.1891 8.57372 12.0818 8.47364 11.9672 8.38373C11.855 8.2946 11.9421 8.34933 11.7444 8.21563C12.8341 8.21563 13.2651 8.19843 14.0892 8.21563C14.3669 8.2211 14.4589 8.2985 14.4533 8.5745C14.4404 9.21092 14.3887 9.85047 14.5106 10.4845ZM14.8778 8.46269C14.8803 8.24065 15.028 8.21798 15.2039 8.21876C15.5672 8.22032 15.9304 8.21876 16.2928 8.21876V8.21328C16.656 8.21328 17.0193 8.22188 17.3817 8.21016C17.6093 8.20312 17.6925 8.28678 17.6844 8.50648C17.6634 9.09208 17.686 9.68003 17.6408 10.2633C17.5673 11.1992 17.0209 11.6471 16.1072 11.5705C15.5131 11.5197 15.0449 11.0772 14.9271 10.4118C14.8125 9.76681 14.8714 9.11319 14.8778 8.46269ZM20.3916 8.53071C20.3868 8.28756 20.4942 8.21328 20.7315 8.22267C21.0802 8.23674 21.4305 8.22658 21.7792 8.22658V8.21954C22.1287 8.21954 22.4782 8.22814 22.8277 8.21641C23.0771 8.20781 23.2038 8.28521 23.195 8.54713C23.1748 9.14524 23.1958 9.7457 23.1473 10.3415C23.0852 11.1116 22.4984 11.6323 21.7816 11.6104C21.0301 11.5877 20.4514 11.0483 20.4102 10.2867C20.3795 9.7027 20.4046 9.11553 20.3916 8.53071ZM25.945 8.48068C25.9434 8.29851 26.0249 8.22423 26.2122 8.22736C26.5754 8.23439 26.9378 8.2297 27.3011 8.2297V8.21876C27.6643 8.21876 28.0267 8.2211 28.3899 8.21798C28.5724 8.21641 28.708 8.25472 28.708 8.47051C28.708 9.12101 28.7653 9.77385 28.6571 10.4197C28.5635 10.974 28.2648 11.397 27.6821 11.5502C26.8636 11.7652 26.0306 11.2148 25.9676 10.3931C25.9192 9.75821 25.9531 9.11866 25.945 8.48068ZM41.7285 15.0834C38.968 18.7299 33.7568 18.4687 31.3402 15.3507C29.7323 13.2757 29.6475 9.64093 32.8278 8.01157C34.79 7.00612 37.0864 7.55575 38.3109 9.33367C39.4006 10.9161 38.6951 13.2562 36.9161 13.9614C35.5221 14.5142 33.9982 13.8285 33.7141 12.5213C33.5429 11.7347 33.9409 11.0154 34.7109 10.7246C35.0193 10.6089 35.3131 10.5971 35.5681 10.852C35.6472 10.9325 35.7433 11.0561 35.87 10.9365C35.9976 10.816 35.9669 10.6636 35.8539 10.551C35.5891 10.2867 35.2485 10.2234 34.8877 10.2695C34.1378 10.3649 33.522 10.9114 33.3395 11.6292C32.986 13.0216 34.0006 14.3672 35.5036 14.5392C38.0115 14.8261 39.3522 12.5588 39.2384 10.8888C39.0672 8.35245 36.3568 6.54248 33.7205 7.21721C33.4348 7.28992 33.1337 7.35482 32.8843 7.49633C32.3443 7.80125 31.7688 7.8208 31.1731 7.8208C24.7165 7.81532 18.2599 7.81611 11.8041 7.81767C11.4829 7.81767 11.2004 7.78171 10.8896 7.63237C8.61336 6.54092 6.12726 7.15076 4.83982 9.23203C3.86798 10.8035 4.29497 12.8989 5.80278 14.0052C6.91022 14.8175 8.49632 14.7581 9.51901 13.8496C10.1817 13.2617 10.4029 12.5205 10.1962 11.6808C10.0057 10.9083 9.4504 10.4705 8.67793 10.268C8.22107 10.1491 7.74242 10.268 7.57775 10.5408C7.51399 10.6456 7.46556 10.7582 7.55596 10.8676C7.6504 10.9834 7.74807 10.8997 7.8417 10.8551C8.62143 10.4806 9.49399 10.859 9.73856 11.6753C10.1284 12.9778 9.13318 13.8324 8.23156 14.0474C6.45578 14.4696 4.83013 13.153 4.76556 11.2867C4.70905 9.65892 5.77453 8.29772 7.43811 7.73401C9.76116 6.94669 12.7865 8.59717 13.1626 11.3743C13.7833 15.9504 9.14125 18.5993 5.33139 17.4735C2.47399 16.6283 0.486725 14.1201 0.428609 11.0999C0.363227 7.69883 2.62412 4.66918 5.82296 3.87326C6.52035 3.69969 7.2339 3.68171 7.94663 3.68093C12.5201 3.67624 17.0935 3.67858 21.667 3.67858V3.67155C26.4011 3.67155 31.136 3.68796 35.8708 3.66607C38.9785 3.652 41.0811 5.15861 42.3694 7.7559C43.6197 10.2774 43.4478 12.8121 41.7285 15.0834Z" fill="black"/>
<path d="M15.3686 34.3738C15.3686 29.4638 15.3678 24.5531 15.3702 19.6431C15.3702 19.2271 15.3452 18.8081 15.4727 18.4015C15.7399 17.5493 16.4042 17.1036 17.2905 17.181C18.0678 17.2491 18.6804 17.8738 18.762 18.7017C18.791 18.9988 18.7862 19.2998 18.7862 19.5993C18.791 29.3419 18.7943 39.0837 18.7983 48.8262C18.7983 48.9302 18.8007 49.035 18.7926 49.1382C18.7838 49.2547 18.6958 49.2821 18.5925 49.2821C18.4916 49.2821 18.3987 49.2609 18.3794 49.1484C18.3664 49.0725 18.3721 48.9928 18.3729 48.9146C18.4238 39.0547 18.4036 29.1957 18.385 19.3358C18.385 19.1278 18.3866 18.9175 18.3584 18.7119C18.2647 18.0262 17.7804 17.6103 17.0806 17.597C16.4865 17.586 15.9038 18.077 15.8101 18.6963C15.7673 18.9785 15.7673 19.2678 15.7673 19.5539C15.7746 29.6218 15.7851 39.6896 15.7948 49.7574C15.7948 49.8223 15.7924 49.888 15.7964 49.9529C15.8053 50.0944 15.7488 50.1694 15.593 50.1765C15.4275 50.1843 15.3823 50.0999 15.3839 49.9623C15.3872 49.7543 15.392 49.5455 15.392 49.3368C15.3928 44.3486 15.392 39.3597 15.392 34.3715C15.3847 34.3738 15.3767 34.3738 15.3686 34.3738Z" fill="black"/>
<path d="M20.3755 33.8046C20.3755 38.7154 20.3755 43.6262 20.3755 48.5362C20.3755 48.6269 20.3804 48.7191 20.369 48.809C20.3545 48.9287 20.252 48.9349 20.1568 48.9396C20.0559 48.9443 19.9622 48.9247 19.9493 48.8075C19.938 48.7043 19.9388 48.5995 19.9388 48.4955C19.9396 39.0391 19.9396 29.5819 19.9437 20.1255C19.9437 19.6439 19.9485 19.1599 20.0026 18.6822C20.1035 17.8003 20.7985 17.1936 21.6734 17.1771C22.5726 17.1599 23.3039 17.7401 23.4686 18.6103C23.5493 19.0356 23.5299 19.4672 23.5267 19.8964C23.4646 28.2324 23.4823 36.5692 23.4977 44.9053C23.4993 45.752 23.5211 46.5988 23.5219 47.4455C23.5219 47.5901 23.6252 47.8098 23.3265 47.8239C22.9972 47.8395 23.0925 47.6026 23.0925 47.4424C23.1013 38.2072 23.1142 28.9721 23.1247 19.7369C23.1247 19.4249 23.1304 19.1099 23.0916 18.801C22.998 18.0552 22.4031 17.5657 21.6605 17.5954C20.9744 17.6236 20.4167 18.1552 20.3973 18.8769C20.3626 20.1786 20.3594 21.4812 20.3577 22.7838C20.3529 26.4569 20.3561 30.13 20.3561 33.8031C20.3618 33.8046 20.3682 33.8046 20.3755 33.8046Z" fill="black"/>
<path d="M11.7452 34.5881C11.7452 29.5084 11.7436 24.428 11.7476 19.3483C11.7476 18.8683 11.7274 18.3843 11.9656 17.9332C12.2868 17.3249 12.6597 17.1083 13.2804 17.1967C13.8269 17.2741 14.2765 17.7346 14.3427 18.3257C14.3847 18.7002 14.3903 19.0802 14.3895 19.457C14.3863 29.1089 14.3798 38.7608 14.3758 48.4134C14.3758 48.9607 14.3968 49.5072 14.3992 50.0545C14.4 50.2179 14.5073 50.4626 14.1966 50.4642C13.8939 50.465 14.0214 50.2164 14.0214 50.0803C14.0142 47.9701 14.0182 45.8599 14.0182 43.7497C14.0198 35.7913 14.0214 27.8321 14.0198 19.8737C14.0198 19.3796 14.0513 18.8823 13.9552 18.3921C13.8665 17.9387 13.5428 17.6275 13.1376 17.5931C12.7655 17.5618 12.4628 17.787 12.2747 18.2311C12.1859 18.4406 12.1682 18.6611 12.1673 18.8831C12.1552 21.8401 12.1359 24.7962 12.1367 27.7532C12.1391 35.2557 12.1512 42.7591 12.1585 50.2617C12.1585 50.379 12.1569 50.4963 12.1552 50.6135C12.1528 50.7511 12.064 50.7824 11.9405 50.7855C11.8098 50.7887 11.7355 50.7402 11.7307 50.6088C11.7282 50.5307 11.7258 50.4525 11.7258 50.3743C11.7258 45.1117 11.7258 39.8499 11.7258 34.5873C11.7315 34.5881 11.7387 34.5881 11.7452 34.5881Z" fill="black"/>
<path d="M25.1225 32.8602C25.1225 37.484 25.1233 42.1078 25.1193 46.7317C25.1193 46.8802 25.2121 47.1101 24.9142 47.0999C24.6277 47.0898 24.7181 46.8622 24.7181 46.7145C24.7221 41.4136 24.7383 36.1119 24.7383 30.811C24.7383 27.1636 24.7157 23.5171 24.7084 19.8698C24.7076 19.4539 24.7052 19.034 24.7577 18.622C24.869 17.7479 25.5786 17.1615 26.4681 17.1701C27.3366 17.1787 27.9968 17.7745 28.0889 18.658C28.1236 18.9941 28.1203 19.3342 28.1203 19.6728C28.1212 28.2176 28.1203 36.7624 28.1195 45.3064C28.1195 45.3971 28.1195 45.4885 28.1099 45.5792C28.0969 45.7035 27.9993 45.7059 27.9008 45.7067C27.8104 45.7075 27.7394 45.6785 27.7297 45.5831C27.7192 45.4799 27.7176 45.3752 27.7176 45.2712C27.716 36.8961 27.716 28.5209 27.7135 20.145C27.7135 19.7025 27.7151 19.2584 27.6885 18.8167C27.6449 18.0833 27.176 17.6189 26.4842 17.5946C25.836 17.5712 25.2218 18.0856 25.133 18.7541C25.0934 19.0497 25.1015 19.3522 25.1015 19.6509C25.0999 24.0535 25.1007 28.456 25.1007 32.8586C25.108 32.8602 25.1152 32.8602 25.1225 32.8602Z" fill="black"/>
<path d="M29.16 31.5811C29.16 27.517 29.1584 23.4538 29.1624 19.3898C29.1624 19.0387 29.1616 18.683 29.2189 18.3382C29.344 17.59 29.8735 17.1435 30.5467 17.1732C31.2118 17.2022 31.6655 17.6642 31.7559 18.4148C31.776 18.5821 31.7801 18.7526 31.7801 18.9222C31.7785 27.037 31.7752 35.151 31.7728 43.2658C31.7728 43.3306 31.7696 43.3955 31.7688 43.4612C31.7664 43.6137 31.6703 43.6582 31.5315 43.6629C31.3733 43.6684 31.3644 43.5597 31.3612 43.4542C31.3555 43.2462 31.3555 43.0374 31.3555 42.8287C31.3595 34.8703 31.3644 26.9127 31.3676 18.9543C31.3676 18.7338 31.3684 18.5086 31.3272 18.2928C31.2554 17.9136 31.0278 17.6533 30.6161 17.5939C30.1996 17.5329 29.9179 17.7362 29.7274 18.07C29.5386 18.4015 29.5329 18.769 29.5329 19.1357C29.5329 24.1895 29.5313 29.2426 29.5313 34.2964C29.5313 37.6826 29.5329 41.0695 29.5345 44.4557C29.5345 44.5206 29.5337 44.5863 29.5345 44.6512C29.5345 44.7653 29.5135 44.8537 29.3618 44.856C29.1915 44.8591 29.1592 44.7645 29.164 44.6309C29.1656 44.5785 29.1656 44.5269 29.1656 44.4745C29.1656 40.1767 29.1656 35.8781 29.1656 31.5803C29.1632 31.5811 29.1616 31.5811 29.16 31.5811Z" fill="black"/>
<path d="M59.1593 5.78567C60.9513 5.81676 62.4618 6.23909 64.1363 6.80184C64.2045 8.16987 64.2284 9.55137 64.3406 10.9158L64.3236 10.9767C64.2459 11.0277 64.1867 11.0365 64.0952 11.0401C63.9819 11.0445 63.8577 11.0425 63.8259 10.9189C63.4918 9.62288 63.0901 8.61525 62.0458 7.70427C61.1156 6.89304 59.89 6.44066 58.6385 6.52616C57.7207 6.58887 56.6838 6.95186 56.0683 7.64416C55.3581 8.23723 55.043 9.15806 54.9711 10.0439C54.8819 11.1422 55.1815 12.2491 55.925 13.0922C56.1519 13.3495 56.5029 13.6915 56.8155 13.8358C57.3681 14.3327 58.1856 14.6778 58.8598 14.996C61.3355 16.1645 64.3876 17.2758 65.3947 20.0232C65.9819 21.625 65.9079 23.5959 65.1605 25.1368C64.4385 26.6245 63.1565 27.5946 61.5836 28.128C58.6205 29.1331 55.366 28.4695 52.6144 27.1805C52.5935 26.1965 52.5657 25.2127 52.5309 24.2289C52.5052 23.5635 52.4295 22.8616 52.488 22.1989C52.5859 22.1175 52.6824 22.1033 52.8122 22.103C52.8498 22.103 52.9698 22.1183 52.9981 22.1346C53.0113 22.1424 53.1606 23.1259 53.2453 23.4143C53.5571 24.4768 54.1187 25.4415 54.9371 26.2105C55.9921 27.2018 57.4018 27.8296 58.8805 27.7922C60.1726 27.7599 61.4215 27.2976 62.3127 26.3688C63.1711 25.4746 63.5322 24.2711 63.4892 23.0611C63.3952 20.4028 61.3591 19.3553 59.1641 18.3117C57.609 17.5725 55.9269 16.8791 54.6558 15.7049C53.3081 14.4597 52.9186 13.0657 52.8727 11.3044C52.9974 10.1418 53.308 9.13137 54.0294 8.18204C55.1534 6.70261 56.777 6.08596 58.5884 5.82738C58.7804 5.82868 58.9688 5.80587 59.1593 5.78567Z" fill="black"/>
<path d="M94.1281 9.94094C94.4992 8.44238 95.3326 7.28511 96.6529 6.42327C97.9153 5.59955 99.3691 5.28325 100.862 5.58513C101.471 5.70825 101.844 5.92538 102.185 6.43486C102.217 7.15555 102.02 7.50456 101.535 8.03671L101.475 8.07508C101.346 8.15622 101.144 8.30406 100.977 8.251C100.235 8.01404 99.9831 6.6095 98.4273 6.5196C98.1572 6.50389 97.877 6.52115 97.6238 6.62032C97.1126 6.82071 96.8157 7.30365 96.6215 7.78119C96.064 9.15096 96.2704 12.7222 96.2644 14.3508L100.039 14.3418L100.044 15.1722C98.7855 15.1715 97.526 15.1818 96.2681 15.1673L96.2694 23.0161L96.2678 25.2941C96.267 25.6735 96.23 26.0714 96.2768 26.4472C96.3035 26.6643 96.3701 26.8995 96.5271 27.0626C96.9159 27.4659 98.4397 27.4675 98.551 27.631C98.5904 27.689 98.5894 27.7418 98.5891 27.8057C98.5891 27.9115 98.6013 28.0019 98.5434 28.0923C97.6283 28.1933 96.6307 28.1191 95.7074 28.1207C94.4744 28.1222 93.2056 28.1851 91.9778 28.1086L91.9871 28.0467L91.8094 28.0542L91.7901 28.1263C91.7738 28.1119 91.759 28.0959 91.7412 28.0833C91.719 28.0673 91.6945 28.0552 91.6709 28.0411C91.6271 27.9053 91.6308 27.8961 91.6754 27.7598C92.3703 27.0971 93.8122 27.7322 93.8371 26.2198C93.8976 22.538 93.7993 18.8496 93.8334 15.1666L91.4529 15.1753L91.465 14.3472L93.9272 14.3475C93.919 13.3816 93.9428 12.4157 93.9986 11.4513C94.0287 10.9699 94.1442 10.4138 94.1281 9.94094Z" fill="black"/>
<path d="M87.76 13.8387L87.8024 13.8542C87.9333 14.0736 87.8575 22.1405 87.8527 23.2507C87.8488 24.1676 87.7244 25.6147 87.9275 26.4572C88.2689 27.8733 89.1975 27.1952 89.7817 27.6696C89.8882 27.7562 89.9011 27.786 89.9192 27.9104C89.894 27.9846 89.8816 28.033 89.8202 28.0871C89.7127 28.1819 84.2375 28.1348 83.5834 28.1345C83.55 28.1201 83.5144 28.0851 83.4855 28.0624C83.4852 27.9972 83.4639 27.8435 83.4841 27.7886C83.6143 27.435 84.7778 27.4728 85.13 27.071C85.2973 26.8801 85.3829 26.6187 85.414 26.3732C85.4706 25.9269 85.4395 25.4491 85.439 24.9986L85.4377 22.5086L85.4411 19.0772C85.4414 18.4019 85.4727 17.708 85.4177 17.0352C85.3239 15.89 84.0692 16.1066 83.5081 15.6353C83.4491 15.5016 83.4528 15.4923 83.4844 15.3491C84.0492 15.1075 84.6706 14.9532 85.2562 14.7611C86.101 14.4811 86.936 14.1733 87.76 13.8387Z" fill="black"/>
<path d="M101.609 35.8858C103.379 35.7428 104.937 37.0096 105.097 38.7227C105.258 40.4359 103.962 41.9541 102.194 42.1221C100.408 42.2918 98.8214 41.0199 98.659 39.2891C98.4968 37.5582 99.8213 36.0304 101.609 35.8858ZM85.535 35.9512C87.0886 36.0138 88.7466 35.6609 89.9891 36.8057C90.5889 37.3596 90.9382 38.1211 90.9598 38.9238C90.9771 39.7879 90.6418 40.53 90.035 41.1504C88.7429 42.2963 87.1425 42.0694 85.5174 42.0645C85.552 40.0363 85.4143 37.9729 85.535 35.9512ZM101.594 36.6162C100.226 36.7698 99.2492 37.9714 99.4149 39.2949C99.5806 40.6182 100.826 41.5588 102.191 41.3916C103.547 41.2255 104.509 40.0296 104.345 38.7158C104.18 37.4021 102.951 36.4638 101.594 36.6162ZM86.2918 36.6504L86.3074 41.376C87.4096 41.3811 88.5149 41.4813 89.411 40.7334C89.9084 40.2356 90.2059 39.6811 90.1942 38.9697C90.188 38.3218 89.9046 37.7052 89.4119 37.2666C88.5566 36.5134 87.3607 36.644 86.2918 36.6504ZM74.0828 14.1602C75.8505 13.8527 77.6405 13.9221 79.1649 14.9502C80.4187 15.796 81.1043 17.0723 81.3612 18.5088C81.4125 18.8055 81.4616 19.103 81.5076 19.4004H71.1785C71.0993 21.57 71.1433 24.0473 72.7742 25.7363C73.6918 26.6864 75.0416 27.1804 76.3699 27.2139C77.931 27.2536 79.474 26.4866 80.578 25.4551C80.753 25.2914 80.9097 25.1199 81.0604 24.9346C81.1744 25.0437 81.2972 25.1511 81.4051 25.2656C79.9605 26.9503 78.152 28.3269 75.826 28.5283C74.0091 28.6857 72.2982 27.9941 70.9246 26.8701C69.4607 25.6958 68.5583 23.9903 68.4295 22.1533C68.2745 20.1263 68.9039 18.0004 70.2928 16.459C70.7172 15.988 71.2105 15.5844 71.7303 15.2158C72.465 14.7461 73.2482 14.4244 74.0828 14.1602ZM100.772 19.7774C101.53 16.1894 104.932 13.7128 108.701 14.0049C111.157 14.1956 113.359 15.5445 114.589 17.6123C115.818 19.6804 115.918 22.2022 114.856 24.3555C113.226 27.6597 109.308 29.2674 105.723 28.1026C102.139 26.9374 100.015 23.3653 100.772 19.7774ZM110.179 15.2266C109.233 14.7404 108.331 14.7178 107.287 14.7744C106.148 14.9856 105.202 15.5196 104.54 16.458C103.267 18.2629 103.213 20.9806 103.628 23.0518C103.938 24.6012 104.526 26.1884 105.935 27.1094C106.859 27.713 107.853 27.8144 108.936 27.7178C110.244 27.3572 111.144 26.7723 111.809 25.6016C113.026 23.4609 113.182 20.5762 112.469 18.2588C112.089 17.0247 111.386 15.8475 110.179 15.2266ZM75.0614 14.7598C74.9789 14.7636 74.8965 14.7679 74.8143 14.7725C73.6708 14.9978 72.8143 15.5145 72.1668 16.4717C71.7233 17.1274 71.4899 17.8664 71.328 18.628L75.3289 18.6201L78.6229 18.6192C78.6021 17.4652 78.5645 16.3706 77.6326 15.5205C76.9065 14.8579 76.0154 14.7168 75.0614 14.7598Z" fill="black"/>
<path d="M80.9103 35.906C81.1826 35.9225 81.4516 35.9029 81.7233 35.8868L81.7231 36.5372C81.7266 37.5704 81.8581 39.312 81.6473 40.2493C81.5599 40.6388 81.3969 41.0048 81.1344 41.3156C80.7084 41.8203 79.9814 42.1728 79.3026 42.215C78.6236 42.2573 77.8322 42.0109 77.3388 41.5533C76.9983 41.24 76.759 40.8385 76.65 40.3973C76.4291 39.5253 76.5569 36.9572 76.5574 35.8938C76.8172 35.9165 77.0779 35.9053 77.3382 35.9C77.3323 36.8702 77.2067 39.2627 77.3726 40.0754C77.437 40.3908 77.5713 40.6901 77.7916 40.9339C78.1145 41.2918 78.5589 41.4558 79.0439 41.4697C79.5316 41.4837 80.012 41.3615 80.3706 41.0304C80.6261 40.7947 80.792 40.4787 80.8656 40.1471C81.0497 39.3198 80.9138 36.8882 80.9103 35.906Z" fill="black"/>
<path d="M64.2465 39.7529C64.2299 39.7419 64.2135 39.7307 64.1968 39.72C63.2112 39.0848 61.5849 39.119 61.2484 37.741C61.1618 37.3863 61.2372 37.0164 61.427 36.7085C61.6983 36.2689 62.1617 35.9808 62.6586 35.8706C63.3124 35.7191 63.9992 35.8474 64.5549 36.2248C64.8212 36.4089 65.041 36.6552 65.2295 36.9169C65.0144 37.047 64.8012 37.1849 64.5778 37.2996C64.2853 36.8874 63.9654 36.6228 63.4549 36.5254C63.0729 36.4525 62.6763 36.5557 62.3622 36.7822C62.1937 36.9036 62.0707 37.0781 62.0392 37.2863C62.0023 37.5307 62.0634 37.7509 62.2192 37.9416C62.9868 38.8808 65.5702 38.7249 65.4583 40.45C65.4266 40.9358 65.1712 41.4378 64.7916 41.74C64.2772 42.149 63.5519 42.2799 62.9109 42.195C62.2493 42.107 61.6512 41.7627 61.2606 41.2166C61.1659 41.0842 61.0916 40.9444 61.0224 40.7974C61.232 40.6882 61.4468 40.5845 61.6515 40.4667C61.9383 40.9619 62.3115 41.3234 62.8841 41.4632C63.2963 41.564 63.773 41.5023 64.1399 41.2832C64.1576 41.2727 64.174 41.26 64.1909 41.2482C64.3016 41.1678 64.4054 41.0884 64.4863 40.9758C64.6215 40.7875 64.6904 40.5566 64.6511 40.3252C64.6051 40.0546 64.4592 39.9096 64.2465 39.7529Z" fill="black"/>
<path d="M86.2379 8.17062C87.1551 7.97549 88.0651 8.52383 88.2656 9.39264C88.466 10.2612 87.8802 11.1181 86.96 11.3018C86.0487 11.484 85.1526 10.9362 84.9541 10.0755C84.7555 9.21502 85.329 8.36422 86.2379 8.17062Z" fill="black"/>
<path d="M68.3017 35.8901C69.0145 35.9459 69.754 35.913 70.4703 35.9143C71.3811 35.9156 72.3015 35.9423 73.2107 35.8868L73.2062 36.6066L71.1643 36.6082C71.1464 37.7435 71.1641 38.8818 71.1651 40.0174C71.1667 40.6981 71.1732 41.3785 71.1847 42.0592L70.3586 42.0633C70.4395 40.2528 70.3843 38.42 70.3878 36.6074L68.287 36.6098L68.3017 35.8901Z" fill="black"/>
<path d="M95.183 35.9693L95.2693 35.9896C95.3614 36.3657 95.332 41.5772 95.2632 42.0109C95.1144 42.0856 94.868 42.0584 94.6978 42.0589L94.5255 42.0376C94.3848 41.8581 94.4592 36.6302 94.4583 35.9649L95.183 35.9693Z" fill="black"/>
</svg>
