<svg width="18" height="19" viewBox="0 0 18 19" fill="none" xmlns="http://www.w3.org/2000/svg">
<path d="M17 17.474L12.95 13.424M12.95 13.424C13.6 12.774 14.1157 12.0022 14.4675 11.1529C14.8193 10.3036 15.0003 9.3933 15.0003 8.474C15.0003 7.5547 14.8193 6.6444 14.4675 5.79508C14.1157 4.94576 13.6 4.17404 12.95 3.524C12.2999 2.87396 11.5282 2.35832 10.6789 2.00651C9.82959 1.65471 8.91929 1.47364 7.99999 1.47364C7.08069 1.47364 6.17039 1.65471 5.32107 2.00651C4.47175 2.35832 3.70003 2.87396 3.04999 3.524C1.73717 4.83682 0.999634 6.61739 0.999634 8.474C0.999634 10.3306 1.73717 12.1112 3.04999 13.424C4.36281 14.7368 6.14338 15.4744 7.99999 15.4744C9.8566 15.4744 11.6372 14.7368 12.95 13.424Z" stroke="#686B6B" stroke-width="2" stroke-linecap="round" stroke-linejoin="round"/>
</svg>
