<svg width="24" height="24" viewBox="0 0 24 24" fill="none" xmlns="http://www.w3.org/2000/svg">
<g clip-path="url(#clip0_852_231)">
<g clip-path="url(#clip1_852_231)">
<path d="M12 24C18.6274 24 24 18.6274 24 12C24 5.37258 18.6274 0 12 0C5.37258 0 0 5.37258 0 12C0 18.6274 5.37258 24 12 24Z" fill="white"/>
<path d="M15.4596 12.4596C15.7135 12.2058 15.7135 11.7942 15.4596 11.5404L11.3231 7.40376C11.0692 7.14992 10.6577 7.14992 10.4038 7.40376C10.15 7.6576 10.15 8.06916 10.4038 8.323L14.0808 12L10.4038 15.677C10.15 15.9308 10.15 16.3423 10.4038 16.5962C10.6576 16.85 11.0692 16.85 11.323 16.5962L15.4596 12.4596ZM14 12.65H15V11.35H14V12.65Z" fill="black"/>
</g>
</g>
<defs>
<clipPath id="clip0_852_231">
<rect width="24" height="24" fill="white"/>
</clipPath>
<clipPath id="clip1_852_231">
<rect width="24" height="24" fill="white"/>
</clipPath>
</defs>
</svg>
