<svg xmlns="http://www.w3.org/2000/svg" fill="none" style="display: none">

  <symbol id="icon-search" viewBox="0 0 18 19">
    <path d="M17 17.474L12.95 13.424M12.95 13.424C13.6 12.774 14.1157 12.0022 14.4675 11.1529C14.8193 10.3036 15.0003 9.3933 15.0003 8.474C15.0003 7.5547 14.8193 6.6444 14.4675 5.79508C14.1157 4.94576 13.6 4.17404 12.95 3.524C12.2999 2.87396 11.5282 2.35832 10.6789 2.00651C9.82959 1.65471 8.91929 1.47364 7.99999 1.47364C7.08069 1.47364 6.17039 1.65471 5.32107 2.00651C4.47175 2.35832 3.70003 2.87396 3.04999 3.524C1.73717 4.83682 0.999634 6.61739 0.999634 8.474C0.999634 10.3306 1.73717 12.1112 3.04999 13.424C4.36281 14.7368 6.14338 15.4744 7.99999 15.4744C9.8566 15.4744 11.6372 14.7368 12.95 13.424Z" stroke="currentColor" fill="none" stroke-width="2" stroke-linecap="round" stroke-linejoin="round"/>
  </symbol>

  <symbol id="icon-arrow" viewBox="0 0 24 24">
    <g clip-path="url(#clip0_852_231)">
      <g clip-path="url(#clip1_852_231)">
        <path d="M12 24C18.6274 24 24 18.6274 24 12C24 5.37258 18.6274 0 12 0C5.37258 0 0 5.37258 0 12C0 18.6274 5.37258 24 12 24Z" fill="white"/>
        <path d="M15.4596 12.4596C15.7135 12.2058 15.7135 11.7942 15.4596 11.5404L11.3231 7.40376C11.0692 7.14992 10.6577 7.14992 10.4038 7.40376C10.15 7.6576 10.15 8.06916 10.4038 8.323L14.0808 12L10.4038 15.677C10.15 15.9308 10.15 16.3423 10.4038 16.5962C10.6576 16.85 11.0692 16.85 11.323 16.5962L15.4596 12.4596ZM14 12.65H15V11.35H14V12.65Z" fill="black"/>
      </g>
    </g>
    <defs>
      <clipPath id="clip0_852_231">
        <rect width="24" height="24" fill="white"/>
      </clipPath>
      <clipPath id="clip1_852_231">
        <rect width="24" height="24" fill="white"/>
      </clipPath>
    </defs>
  </symbol>

  <symbol id="icon-arrow-down" viewBox="0 0 16 13">
    <path d="M0 0.831794L8.04419 12.7L16 0.699951L0 0.831794Z" fill="currentColor"/>
  </symbol>

</svg>