<svg xmlns="http://www.w3.org/2000/svg" width="116" height="51" fill="none" viewBox="0 0 116 51"><path fill="#000" d="M37.9 3.457c-.288-.072-.35-.215-.345-.471.014-.834-.01-1.669.021-2.501.015-.387-.125-.473-.503-.473Q21.76.02 6.446 0c-.353 0-.43.124-.425.432.014.859-.004 1.719.008 2.578.003.253-.09.371-.344.434-.655.16-1.288.386-1.853.75C1.446 5.74.138 7.888.008 10.679c-.18 3.859 2.67 7.058 6.625 7.447a6.44 6.44 0 0 0 3.006-.409c.29-.114.397-.052.388.244-.007.209.009.417.009.626l-.025 31.85c0 .104.004.208 0 .312-.004.156.084.196.228.2.335.009.224-.234.224-.387q.005-8.207.004-16.413h-.013v-5.745c-.004-3.491 0-6.982-.021-10.473-.003-.364.076-.577.412-.779.846-.506 1.554-1.177 2.025-2.03.226-.412.5-.52.951-.519 5.273.008 10.546-.001 15.819-.005.16 0 .322.017.483.014.198-.003.315.081.407.254.51.963 1.268 1.708 2.207 2.282.206.125.3.276.298.509-.002.443.016.886.016 1.328q0 11.392.005 22.784c0 .15-.127.409.192.418.33.01.203-.252.203-.403.006-7.92.005-15.84.006-23.76 0-.456.019-.474.485-.305 1.894.689 3.764.591 5.551-.286 2.228-1.095 3.478-2.895 3.909-5.28.68-3.775-1.9-7.804-5.503-8.695M6.485.93c-.022-.36.109-.468.48-.467 3.24.01 6.48 0 9.721-.002L36.495.46c.642 0 .64 0 .632.608-.007.625-.015 1.25-.013 1.875 0 .23-.076.311-.33.311-5.016-.008-10.032-.006-15.047-.006v-.028c-4.747 0-9.493.002-14.24-.003-.33-.001-.767.174-.959-.05-.16-.186-.042-.597-.043-.909-.003-.442.02-.886-.008-1.327m23.51 13.228q-.12.004-.242.003H21.77v-.005c-2.675 0-5.351-.007-8.026.006-.379.003-.382-.085-.312-.419.099-.479.348-.558.799-.557 5.015.01 10.029 0 15.043-.003.588-.001.827.226.866.796.008.115-.023.174-.143.179m-15.485-3.673c.196 1.02.924 1.608 1.931 1.55.94-.052 1.587-.734 1.637-1.754q.041-.858.028-1.717c-.003-.275.103-.357.378-.362.292-.005.369.104.363.367-.02.886-.023 1.77-.031 2.657-.001.13-.001.26.01.39.012.14.064.26.24.256.192-.004.198-.143.199-.277q-.001-.469-.004-.938c0-.703.008-1.406-.002-2.11-.004-.252.087-.344.352-.338.25.004.37.07.357.335-.021.39-.021.781-.015 1.172.006.285.012.575.06.856.152.883.82 1.447 1.714 1.47.915.024 1.63-.51 1.83-1.385.154-.682.077-1.377.07-2.065-.003-.33.129-.398.428-.384.263.012.306.148.304.357q-.006 1.015-.007 2.031-.001.45.004.899c.003.168-.02.373.24.368.252-.005.186-.215.187-.357.01-.806.01-1.614.012-2.422 0-.169.002-.338-.005-.507-.008-.214 0-.383.31-.373.272.01.426.06.418.37-.014.598-.027 1.2.016 1.796.052.712.397 1.286 1.104 1.553.639.24 1.276.175 1.826-.26.46-.361.623-.876.66-1.42.037-.558.032-1.119.018-1.678-.006-.259.083-.342.345-.338.724.013 1.45.004 2.209.004-.82.648-1.406 1.438-1.678 2.431-.164.599-.183 1.208-.163 1.822.005.15.053.298-.225.297-3.697-.017-7.395-.022-11.093-.03-1.506-.002-3.012-.013-4.517.006-.333.004-.406-.086-.394-.392.055-1.395-.317-2.654-1.336-3.688a3.4 3.4 0 0 0-.324-.293c-.112-.09-.025-.035-.223-.168C12.834 8.216 13.265 8.198 14.09 8.215c.278.005.37.083.364.359-.013.636-.064 1.275.058 1.91m.367-2.022c.002-.222.15-.245.326-.244q.544 0 1.089 0v-.005c.363 0 .726.008 1.089-.004.227-.007.31.077.302.296-.02.586.002 1.174-.043 1.757-.074.936-.62 1.384-1.534 1.307-.594-.05-1.062-.493-1.18-1.158-.114-.645-.056-1.299-.05-1.95m5.514.068c-.005-.243.102-.318.34-.308.348.014.698.004 1.047.004V8.22c.35 0 .7.008 1.049-.004.25-.008.376.07.367.331-.02.598 0 1.199-.048 1.794-.062.77-.649 1.291-1.365 1.27-.752-.023-1.33-.563-1.372-1.324-.03-.584-.005-1.171-.018-1.756m5.553-.05c-.002-.182.08-.257.267-.254.363.007.726.003 1.09.003v-.01q.543 0 1.088-.002c.182-.002.318.037.318.253 0 .65.057 1.303-.05 1.949-.095.554-.393.977-.976 1.13-.818.215-1.651-.335-1.714-1.157-.049-.635-.015-1.274-.023-1.912m15.783 6.602c-2.76 3.647-7.971 3.386-10.388.268-1.608-2.075-1.692-5.71 1.488-7.34 1.962-1.005 4.258-.455 5.483 1.323 1.09 1.582.384 3.922-1.395 4.627-1.394.553-2.918-.133-3.202-1.44-.171-.786.227-1.506.997-1.796.308-.116.602-.128.857.127.08.08.175.204.302.085.128-.121.097-.273-.016-.386-.265-.264-.605-.328-.966-.281a1.84 1.84 0 0 0-1.548 1.36c-.354 1.392.66 2.737 2.164 2.91 2.508.286 3.848-1.981 3.734-3.651-.17-2.537-2.881-4.347-5.517-3.672-.286.073-.587.138-.837.28-.54.304-1.115.324-1.71.324q-9.687-.007-19.37-.003c-.321 0-.604-.036-.914-.186-2.277-1.091-4.763-.481-6.05 1.6-.972 1.572-.545 3.667.963 4.773 1.107.813 2.693.753 3.716-.155.663-.588.884-1.33.677-2.17-.19-.772-.746-1.21-1.518-1.412-.457-.119-.936 0-1.1.273-.064.105-.112.217-.022.327.094.115.192.032.286-.013.78-.374 1.652.004 1.897.82.39 1.303-.606 2.157-1.507 2.372-1.776.423-3.402-.894-3.466-2.76-.057-1.628 1.009-2.99 2.672-3.553 2.323-.787 5.349.863 5.725 3.64.62 4.576-4.022 7.225-7.832 6.1C2.474 16.628.487 14.12.43 11.1.363 7.699 2.624 4.67 5.823 3.873c.697-.173 1.41-.191 2.124-.192 4.573-.005 9.147-.002 13.72-.002v-.007c4.734 0 9.469.016 14.204-.006 3.107-.014 5.21 1.493 6.498 4.09 1.25 2.521 1.079 5.056-.64 7.327"/><path fill="#000" d="M15.369 34.374q-.001-7.365.001-14.73c0-.417-.025-.836.103-1.242.267-.853.931-1.298 1.818-1.221.777.068 1.39.693 1.471 1.52.029.298.024.599.024.898l.012 29.227c0 .104.003.209-.005.312-.01.117-.097.144-.2.144-.101 0-.194-.021-.214-.134-.013-.076-.007-.155-.006-.233.05-9.86.03-19.72.012-29.58 0-.207.002-.418-.027-.623-.093-.686-.578-1.102-1.277-1.115-.595-.011-1.177.48-1.27 1.1-.044.282-.044.57-.044.857q.013 15.102.028 30.203c0 .065-.003.131.001.196.01.141-.047.216-.203.223-.165.008-.21-.076-.21-.214q.008-.313.009-.625V34.37q-.01.004-.023.003"/><path fill="#000" d="M20.376 33.805v14.731c0 .09.004.183-.007.273-.014.12-.117.126-.212.13-.101.005-.195-.014-.208-.132-.011-.103-.01-.208-.01-.312q-.001-14.184.005-28.37c0-.481.005-.965.059-1.443.1-.882.796-1.488 1.67-1.505.9-.017 1.63.563 1.796 1.433.08.426.06.857.058 1.286-.062 8.336-.045 16.673-.03 25.01.002.846.024 1.693.025 2.54 0 .144.103.364-.195.378-.33.016-.235-.221-.235-.382l.033-27.705c0-.312.005-.627-.033-.936-.094-.746-.689-1.235-1.431-1.206a1.303 1.303 0 0 0-1.263 1.281 154 154 0 0 0-.04 3.907c-.005 3.674-.002 7.347-.002 11.02q.009.002.02.002"/><path fill="#000" d="M11.745 34.588q-.001-7.62.003-15.24c0-.48-.02-.964.218-1.415.32-.608.694-.825 1.314-.736.547.077.997.538 1.063 1.129.042.374.047.754.046 1.131-.003 9.652-.01 19.304-.013 28.956 0 .548.02 1.094.023 1.642.001.163.108.408-.202.41-.303 0-.176-.249-.176-.385-.007-2.11-.003-4.22-.003-6.33q.003-11.939.002-23.876c0-.494.031-.992-.065-1.482-.088-.453-.412-.764-.817-.799-.373-.031-.675.194-.863.638-.09.21-.107.43-.108.652-.012 2.957-.031 5.913-.03 8.87.002 7.503.014 15.006.021 22.509l-.003.352c-.002.137-.091.168-.214.172-.131.003-.206-.046-.21-.177l-.005-.235V34.587ZM25.123 32.86q.001 6.936-.004 13.872c0 .148.093.378-.205.368-.286-.01-.196-.238-.196-.386.004-5.3.02-10.602.02-15.903 0-3.647-.022-7.294-.03-10.941 0-.416-.003-.836.05-1.248.111-.874.82-1.46 1.71-1.452.869.009 1.529.604 1.62 1.488.036.336.032.676.032 1.015v25.633c0 .091 0 .183-.01.273-.013.124-.11.127-.21.128-.09 0-.16-.029-.17-.124a3 3 0 0 1-.012-.312q-.002-12.562-.005-25.126c0-.442.002-.887-.024-1.328-.044-.734-.513-1.198-1.205-1.222-.648-.024-1.262.49-1.351 1.16-.04.295-.031.597-.031.896q-.002 6.604-.001 13.208ZM29.16 31.581c0-4.064-.002-8.127.002-12.191 0-.351 0-.707.057-1.052.125-.748.654-1.195 1.328-1.165.665.03 1.119.491 1.209 1.242.02.167.024.338.024.507l-.007 24.344q-.001.097-.004.195c-.003.153-.099.197-.237.202-.159.005-.168-.103-.17-.209q-.007-.312-.006-.625.005-11.938.012-23.875c0-.22 0-.445-.04-.661-.073-.38-.3-.64-.712-.7-.416-.06-.698.143-.889.477-.188.331-.194.699-.194 1.066l-.002 15.16q0 5.08.004 10.16v.195c0 .114-.021.203-.173.205-.17.003-.203-.092-.198-.225q.003-.079.002-.157V31.58ZM59.16 5.786c1.791.03 3.302.453 4.976 1.016.069 1.368.092 2.75.205 4.114l-.017.06a.4.4 0 0 1-.228.063c-.114.005-.238.004-.27-.12-.334-1.296-.736-2.304-1.78-3.215-.93-.811-2.156-1.263-3.407-1.178-.918.063-1.955.426-2.57 1.118-.71.593-1.026 1.514-1.098 2.4-.09 1.098.21 2.205.954 3.048.227.258.578.6.89.744.553.497 1.37.842 2.045 1.16 2.476 1.168 5.528 2.28 6.535 5.027.587 1.602.513 3.573-.234 5.114-.722 1.488-2.005 2.458-3.577 2.991-2.964 1.005-6.218.341-8.97-.948q-.03-1.475-.083-2.951c-.026-.665-.102-1.367-.043-2.03.098-.082.194-.096.324-.096.038 0 .158.015.186.032.013.007.163.99.247 1.28a6.2 6.2 0 0 0 1.692 2.796c1.055.99 2.465 1.619 3.944 1.581 1.292-.032 2.54-.494 3.432-1.423.858-.894 1.22-2.098 1.176-3.308-.094-2.658-2.13-3.706-4.325-4.75-1.555-.738-3.237-1.432-4.508-2.606-1.348-1.245-1.737-2.64-1.783-4.4.124-1.163.435-2.174 1.156-3.123 1.124-1.48 2.748-2.096 4.56-2.355.191.002.38-.021.57-.041M94.128 9.94c.371-1.498 1.205-2.655 2.525-3.517 1.262-.823 2.716-1.14 4.209-.838.609.123.982.34 1.323.85.032.72-.165 1.07-.65 1.602l-.06.038c-.129.081-.331.23-.498.176-.742-.237-.994-1.641-2.55-1.731-.27-.016-.55.001-.803.1-.511.2-.808.684-1.002 1.161-.558 1.37-.352 4.941-.358 6.57l3.775-.01.005.831c-1.258 0-2.518.01-3.776-.005l.001 7.85-.001 2.277c-.001.38-.038.777.009 1.153.026.217.093.453.25.616.389.403 1.913.405 2.024.568.04.058.038.11.038.175 0 .105.012.196-.046.286-.915.101-1.912.027-2.836.029-1.233.001-2.501.064-3.73-.012l.01-.062-.178.007-.019.072q-.023-.022-.049-.043-.034-.022-.07-.042c-.044-.136-.04-.145.004-.281.695-.663 2.137-.028 2.162-1.54.06-3.682-.038-7.37-.004-11.053l-2.38.008.012-.828h2.462q-.012-1.448.072-2.896c.03-.481.145-1.037.13-1.51M87.76 13.839l.042.015c.131.22.055 8.287.05 9.397-.003.917-.128 2.364.075 3.206.342 1.416 1.27.738 1.855 1.213.106.086.12.116.137.24-.025.075-.037.123-.099.177-.107.095-5.582.048-6.237.047-.033-.014-.069-.049-.097-.072 0-.065-.022-.219-.002-.273.13-.354 1.294-.316 1.646-.718.167-.19.253-.452.284-.698.057-.446.025-.924.025-1.374l-.001-2.49.003-3.432c0-.675.032-1.369-.023-2.042-.094-1.145-1.349-.928-1.91-1.4-.059-.133-.055-.143-.024-.286.565-.242 1.187-.396 1.772-.588q1.268-.42 2.504-.922"/><path fill="#000" d="M101.609 35.886c1.77-.143 3.328 1.124 3.488 2.837s-1.135 3.231-2.903 3.4c-1.786.169-3.373-1.103-3.535-2.834s1.162-3.259 2.95-3.403m-16.074.065c1.554.063 3.212-.29 4.454.855.6.554.95 1.315.97 2.118.018.864-.317 1.606-.924 2.226-1.292 1.146-2.892.92-4.518.915.035-2.029-.103-4.092.018-6.114m16.059.665c-1.368.154-2.345 1.355-2.18 2.679.167 1.323 1.412 2.264 2.777 2.097 1.356-.167 2.318-1.362 2.154-2.676s-1.394-2.252-2.751-2.1m-15.302.034.015 4.726c1.103.005 2.208.105 3.104-.643.497-.497.795-1.052.783-1.763a2.3 2.3 0 0 0-.782-1.703c-.855-.754-2.051-.623-3.12-.617m-12.21-22.49c1.769-.307 3.559-.238 5.083.79 1.254.846 1.94 2.122 2.196 3.559q.076.445.147.891h-10.33c-.079 2.17-.035 4.647 1.596 6.336.918.95 2.268 1.444 3.596 1.478 1.561.04 3.104-.727 4.208-1.759a5 5 0 0 0 .482-.52c.114.109.237.216.345.33-1.445 1.685-3.253 3.062-5.579 3.263-1.817.158-3.528-.534-4.901-1.658a6.65 6.65 0 0 1-2.495-4.717c-.156-2.027.474-4.153 1.863-5.694.424-.471.917-.875 1.437-1.243.735-.47 1.518-.792 2.353-1.056m26.69 5.617c.758-3.588 4.16-6.064 7.929-5.772 2.456.19 4.658 1.54 5.888 3.607a7.05 7.05 0 0 1 .267 6.743c-1.63 3.305-5.548 4.912-9.133 3.748-3.584-1.166-5.708-4.738-4.951-8.326m9.407-4.55c-.946-.487-1.848-.51-2.892-.453-1.139.212-2.085.746-2.747 1.684-1.273 1.805-1.327 4.523-.912 6.594.31 1.55.898 3.136 2.307 4.057.924.604 1.918.705 3.001.609 1.308-.36 2.208-.946 2.873-2.116 1.217-2.141 1.373-5.026.66-7.343-.38-1.234-1.083-2.412-2.29-3.032m-35.118-.467-.247.013c-1.143.225-2 .742-2.647 1.699-.444.655-.677 1.394-.839 2.156l4-.008h3.295c-.02-1.155-.059-2.25-.99-3.1-.727-.662-1.618-.803-2.572-.76M80.91 35.906c.273.017.542-.003.813-.02v.651c.004 1.033.135 2.775-.076 3.712-.087.39-.25.756-.513 1.067-.426.504-1.153.857-1.831.899-.68.042-1.47-.204-1.964-.662a2.33 2.33 0 0 1-.689-1.156c-.22-.872-.093-3.44-.093-4.503.26.023.52.011.781.006-.006.97-.131 3.363.035 4.175.064.316.198.615.419.859.323.358.767.522 1.252.536.488.014.968-.108 1.327-.44.255-.235.421-.551.495-.883.184-.827.048-3.259.044-4.241M64.247 39.753l-.05-.033c-.986-.635-2.612-.601-2.949-1.979a1.36 1.36 0 0 1 .179-1.032c.271-.44.735-.728 1.232-.838a2.4 2.4 0 0 1 1.896.354c.266.184.486.43.674.692-.215.13-.428.268-.651.383-.293-.413-.613-.677-1.123-.775a1.43 1.43 0 0 0-1.093.257.77.77 0 0 0-.323.504.8.8 0 0 0 .18.655c.768.94 3.351.784 3.24 2.509a1.86 1.86 0 0 1-.667 1.29c-.515.409-1.24.54-1.881.455a2.4 2.4 0 0 1-1.65-.978 2.6 2.6 0 0 1-.238-.42c.209-.109.424-.212.628-.33.287.495.66.856 1.233.996.412.101.889.04 1.256-.18q.027-.016.05-.035c.112-.08.215-.16.296-.272a.87.87 0 0 0 .165-.65c-.046-.271-.192-.416-.404-.573M86.238 8.17c.917-.195 1.827.354 2.028 1.223.2.868-.386 1.725-1.306 1.909-.911.182-1.807-.366-2.006-1.226s.375-1.712 1.284-1.905M68.302 35.89c.712.056 1.452.023 2.168.024.911.002 1.832.028 2.74-.027l-.004.72-2.042.001c-.018 1.136 0 2.274.001 3.41q.002 1.02.02 2.041l-.826.004c.08-1.81.025-3.643.029-5.456l-2.101.003ZM95.183 35.97l.086.02c.092.376.063 5.587-.006 6.02-.149.076-.395.048-.565.049l-.172-.021c-.141-.18-.067-5.408-.068-6.073Z"/></svg>