<svg xmlns="http://www.w3.org/2000/svg" width="24" height="24" fill="none" viewBox="0 0 24 24"><mask id="mask0_815_135" width="24" height="24" x="0" y="0" maskUnits="userSpaceOnUse" style="mask-type:alpha"><rect width="24" height="24" fill="#5d5d5d" rx="2"/></mask><g mask="url(#mask0_815_135)"><path fill="#5d5d5d" d="M0 0v24h24V0Zm18.82 8.963c0 4.644-3.536 9.996-9.997 9.996a9.95 9.95 0 0 1-5.395-1.575c.285.032.558.043.847.043a7.05 7.05 0 0 0 4.36-1.5 3.52 3.52 0 0 1-3.284-2.438c.542.08 1.03.08 1.587-.064a3.514 3.514 0 0 1-2.813-3.45v-.043a3.5 3.5 0 0 0 1.586.445 3.5 3.5 0 0 1-1.152-1.264 3.45 3.45 0 0 1-.413-1.66c0-.655.172-1.255.477-1.774a9.98 9.98 0 0 0 7.243 3.675c-.498-2.384 1.286-4.318 3.429-4.318a3.5 3.5 0 0 1 2.566 1.109 6.9 6.9 0 0 0 2.229-.846 3.5 3.5 0 0 1-1.543 1.934 7 7 0 0 0 2.025-.546 7.4 7.4 0 0 1-1.762 1.821c.01.15.01.305.01.455"/></g></svg>