<svg xmlns="http://www.w3.org/2000/svg" width="25" height="25" fill="none" viewBox="0 0 25 25"><g clip-path="url(#clip0_852_145)" opacity=".5"><g clip-path="url(#clip1_852_145)"><path fill="#000" d="M12.04 2.983A10 10 0 1 0 12.04 22.983 10 10 0 0 0 12.04 2.983m0 2a7.94 7.94 0 0 1 5.51 2.22 25 25 0 0 1-4.83 2.18 29 29 0 0 0-2.87-4.09 8 8 0 0 1 2.19-.31m-4.11 1.15a27 27 0 0 1 2.81 3.85 25 25 0 0 1-6 .74h-.36a8 8 0 0 1 3.55-4.59m-1.89 12.16a7.9 7.9 0 0 1-2-5.31v-.29h.68a26.7 26.7 0 0 0 7-1c.32.61.62 1.24.91 1.89a14.3 14.3 0 0 0-4.29 2.41l-.3.24a21 21 0 0 0-2 2.06m6 2.69a7.9 7.9 0 0 1-4.47-1.37 18 18 0 0 1 1.56-1.58l.32-.27a12.6 12.6 0 0 1 4-2.27 32 32 0 0 1 1.4 5 8.1 8.1 0 0 1-2.81.49m4.63-1.49a35 35 0 0 0-1.28-4.46h.34q.06-.015.12 0h.69a9.4 9.4 0 0 1 3.09.53 7.94 7.94 0 0 1-2.96 3.93m-.13-6.51h-.62a1.6 1.6 0 0 0-.39 0q-.409.025-.81.1h-.1c-.29-.67-.59-1.32-.92-2a26.6 26.6 0 0 0 5.13-2.4 8 8 0 0 1 1.21 4.3v.51a11.5 11.5 0 0 0-3.5-.51" opacity=".8"/></g></g><defs><clipPath id="clip0_852_145"><path fill="#fff" d="M0 0h25v25H0Z"/></clipPath><clipPath id="clip1_852_145"><path fill="#fff" d="M0 0h25v25H0Z"/></clipPath></defs></svg>