<svg xmlns="http://www.w3.org/2000/svg" width="24" height="24" fill="none" viewBox="0 0 24 24"><path fill="#5d5d5d" d="M22.225 0H1.775A1.76 1.76 0 0 0 .53.493 1.74 1.74 0 0 0 0 1.716v20.568a1.73 1.73 0 0 0 .53 1.223A1.75 1.75 0 0 0 1.775 24h20.45a1.76 1.76 0 0 0 1.245-.493 1.74 1.74 0 0 0 .53-1.223V1.716a1.73 1.73 0 0 0-.53-1.223A1.75 1.75 0 0 0 22.225 0M7.28 20.088H3.658v-10.8H7.28ZM5.469 7.776c-.5 0-.979-.197-1.332-.548a1.866 1.866 0 0 1 0-2.647 1.9 1.9 0 0 1 1.332-.548 1.9 1.9 0 0 1 1.476.467 1.89 1.89 0 0 1 .633 1.405 1.87 1.87 0 0 1-.633 1.405 1.9 1.9 0 0 1-1.476.467m14.873 12.312H16.72v-5.796c0-1.452-.519-2.4-1.835-2.4a2 2 0 0 0-1.136.364 2 2 0 0 0-.723.944c-.094.282-.135.58-.12.876v6H9.283v-10.8h3.622V10.8a3.6 3.6 0 0 1 1.384-1.352A3.64 3.64 0 0 1 16.178 9c2.413 0 4.164 1.548 4.164 4.872Z"/></svg>