<svg xmlns="http://www.w3.org/2000/svg" width="24" height="24" fill="none" viewBox="0 0 24 24"><path fill="#5d5d5d" d="M13.234 0c1.35.004 2.035.01 2.626.028l.233.008c.269.01.534.022.854.036 1.277.06 2.148.262 2.913.558.792.305 1.459.718 2.126 1.384a5.9 5.9 0 0 1 1.383 2.126c.297.764.498 1.635.558 2.913.015.32.027.585.037.855l.007.233c.018.59.025 1.275.027 2.625l.002.895v1.572a95 95 0 0 1-.028 2.626l-.007.233c-.01.27-.022.535-.036.854-.06 1.278-.264 2.148-.56 2.913a5.9 5.9 0 0 1-1.383 2.126 5.9 5.9 0 0 1-2.126 1.383c-.765.298-1.636.5-2.913.56l-.854.035-.233.008c-.591.016-1.276.025-2.626.027l-.896.001h-1.57a94 94 0 0 1-2.627-.028l-.233-.006q-.428-.017-.854-.038c-1.277-.06-2.148-.261-2.914-.558a5.9 5.9 0 0 1-2.125-1.383A5.9 5.9 0 0 1 .63 19.86c-.296-.765-.497-1.636-.557-2.914l-.036-.854-.006-.233A95 95 0 0 1 0 13.233v-2.467A95 95 0 0 1 .027 8.14l.008-.232c.01-.27.022-.535.036-.855C.131 5.775.333 4.905.63 4.14a5.9 5.9 0 0 1 1.387-2.126A5.9 5.9 0 0 1 4.14.63C4.906.334 5.776.132 7.054.072c.32-.014.585-.026.854-.036l.233-.007Q9.453-.003 10.767 0ZM12 6A6 6 0 1 0 12 18 6 6 0 0 0 12 6m0 2.4A3.6 3.6 0 1 1 12 15.6 3.6 3.6 0 0 1 12 8.4m6.3-4.2A1.5 1.5 0 1 0 18.3 7.2 1.5 1.5 0 0 0 18.301 4.2"/></svg>