<svg xmlns="http://www.w3.org/2000/svg" width="25" height="25" fill="none" viewBox="0 0 25 25"><g clip-path="url(#clip0_852_134)" opacity=".5"><g clip-path="url(#clip1_852_134)"><path fill="#000" d="M20.51 2.984H3.57a1.45 1.45 0 0 0-1.47 1.43v17.14a1.45 1.45 0 0 0 1.47 1.43h16.94a1.45 1.45 0 0 0 1.47-1.43V4.413a1.45 1.45 0 0 0-1.47-1.43M8.13 19.724h-3v-9h3Zm-1.5-10.26a1.56 1.56 0 0 1 0-3.12 1.57 1.57 0 1 1 0 3.12m12.32 10.26h-3v-4.83c0-1.21-.43-2-1.52-2a1.65 1.65 0 0 0-1.54 1.09 2 2 0 0 0-.1.73v5h-3v-9h3v1.27a3 3 0 0 1 2.71-1.5c2 0 3.45 1.29 3.45 4.06Z"/></g></g><defs><clipPath id="clip0_852_134"><path fill="#fff" d="M0 0h25v25H0Z"/></clipPath><clipPath id="clip1_852_134"><path fill="#fff" d="M0 0h25v25H0Z"/></clipPath></defs></svg>