<svg xmlns="http://www.w3.org/2000/svg" width="25" height="25" fill="none" viewBox="0 0 25 25"><g clip-path="url(#clip0_852_139)" opacity=".5"><g clip-path="url(#clip1_852_139)"><path fill="#000" d="M17.38 6.443A1.2 1.2 0 1 0 17.38 8.843 1.2 1.2 0 0 0 17.38 6.443m4.6 2.42a7.6 7.6 0 0 0-.46-2.43 4.94 4.94 0 0 0-1.16-1.77 4.7 4.7 0 0 0-1.77-1.15 7.3 7.3 0 0 0-2.43-.47c-1.06-.06-1.4-.06-4.12-.06s-3.06 0-4.12.06a7.3 7.3 0 0 0-2.43.47 4.8 4.8 0 0 0-1.77 1.15 4.7 4.7 0 0 0-1.15 1.77 7.3 7.3 0 0 0-.47 2.43c-.06 1.06-.06 1.4-.06 4.12s0 3.06.06 4.12a7.3 7.3 0 0 0 .47 2.43 4.7 4.7 0 0 0 1.15 1.77c.496.51 1.101.904 1.77 1.15a7.3 7.3 0 0 0 2.43.47c1.06.06 1.4.06 4.12.06s3.06 0 4.12-.06a7.3 7.3 0 0 0 2.43-.47 4.7 4.7 0 0 0 1.77-1.15 4.85 4.85 0 0 0 1.16-1.77c.285-.779.44-1.6.46-2.43 0-1.06.06-1.4.06-4.12s0-3.06-.06-4.12m-1.8 8.12a5.6 5.6 0 0 1-.34 1.86c-.16.436-.417.829-.75 1.15-.325.33-.717.587-1.15.75a5.6 5.6 0 0 1-1.86.34c-1 .05-1.37.06-4 .06s-3 0-4-.06a5.7 5.7 0 0 1-1.94-.3 3.3 3.3 0 0 1-1.1-.75 3 3 0 0 1-.74-1.15 5.5 5.5 0 0 1-.4-1.9c0-1-.06-1.37-.06-4s0-3 .06-4a5.5 5.5 0 0 1 .35-1.9 3 3 0 0 1 .79-1.1 3.1 3.1 0 0 1 1.1-.8 5.7 5.7 0 0 1 1.9-.34c1 0 1.37-.06 4-.06s3 0 4 .06a5.6 5.6 0 0 1 1.86.34 3.06 3.06 0 0 1 1.19.8c.327.308.583.683.75 1.1.222.61.337 1.252.34 1.9.05 1 .06 1.37.06 4s-.01 3-.06 4m-8.14-9.13a5.13 5.13 0 1 0 5.14 5.13 5.12 5.12 0 0 0-5.14-5.13m0 8.46A3.33 3.33 0 1 1 12.04 9.653 3.33 3.33 0 0 1 12.04 16.314" opacity=".8"/></g></g><defs><clipPath id="clip0_852_139"><path fill="#fff" d="M0 0h25v25H0Z"/></clipPath><clipPath id="clip1_852_139"><path fill="#fff" d="M0 0h25v25H0Z"/></clipPath></defs></svg>