<svg xmlns="http://www.w3.org/2000/svg" width="74" height="58" fill="none" viewBox="0 0 74 58"><path fill="#004638" d="m32.102 57.823-6.923-1.98a1.34 1.34 0 0 1-.93-1.667L39.74 1.562c.204-.716.965-1.119 1.691-.917l6.923 1.98c.726.202 1.135.951.93 1.667l-15.49 52.612a1.363 1.363 0 0 1-1.691.917M19.164 45.269l4.937-5.192a1.33 1.33 0 0 0-.09-1.925l-10.283-8.918 10.282-8.918a1.32 1.32 0 0 0 .09-1.925l-4.936-5.19a1.377 1.377 0 0 0-1.93-.056L.882 28.25c-.579.526-.579 1.432 0 1.958l16.354 15.117a1.367 1.367 0 0 0 1.93-.056m37.134.067 16.354-15.117a1.32 1.32 0 0 0 0-1.958L56.298 13.133a1.39 1.39 0 0 0-1.93.056l-4.936 5.192a1.33 1.33 0 0 0 .09 1.925l10.283 8.928-10.282 8.918a1.32 1.32 0 0 0-.09 1.925l4.936 5.192c.51.548 1.373.57 1.93.067"/></svg>