<svg xmlns="http://www.w3.org/2000/svg" width="74" height="58" viewBox="0 0 74 58" fill="none">
<path d="M32.1023 57.8229L25.1794 55.8424C24.453 55.641 24.0445 54.8913 24.2488 54.1752L39.7402 1.56327C39.9445 0.847157 40.7048 0.444344 41.4312 0.64575L48.3541 2.62625C49.0804 2.82766 49.489 3.57734 49.2847 4.29345L33.7933 56.9054C33.5777 57.6215 32.8286 58.0355 32.1023 57.8229ZM19.1644 45.2685L24.1012 40.0767C24.6233 39.5285 24.5892 38.6557 24.0104 38.1522L13.7282 29.2343L24.0104 20.3165C24.5892 19.813 24.6346 18.9402 24.1012 18.3919L19.1644 13.2001C18.6537 12.663 17.7912 12.6295 17.2351 13.1442L0.881122 28.2497C0.302321 28.7756 0.302321 29.6819 0.881122 30.2078L17.2351 45.3245C17.7912 45.8392 18.6537 45.8168 19.1644 45.2685ZM56.2984 45.3357L72.6523 30.219C73.2311 29.6931 73.2311 28.7868 72.6523 28.2609L56.2984 13.133C55.7536 12.6295 54.8911 12.6518 54.3691 13.1889L49.4322 18.3807C48.9102 18.929 48.9442 19.8018 49.523 20.3053L59.8052 29.2343L49.523 38.1522C48.9442 38.6557 48.8988 39.5285 49.4322 40.0767L54.3691 45.2685C54.8798 45.8168 55.7423 45.8392 56.2984 45.3357Z" fill="#004638"/>
</svg>